:version 1.10
:name ASF
:units
  mass 1
  length 1
  angle deg
:documentation
  ASF file generated by Kaydara
:root
  axis xyz
  order  tx ty tz rx ry rz
  position 0 0 0
  orientation 0 0 0
:bonedata
  begin
    id 1
    name RightUpLegDummy
    direction -0.718183 -0.695806 0.00816078
    length 4.904
    axis 0 0 0 xyz
  end
  begin
    id 2
    name RightUpLeg
    direction 3.53989e-006 -0.995788 0.0916897
    length 17.4976
    axis -3.49089 -0.000906621 0.000287158 xyz
    dof rx ry rz
  end
  begin
    id 3
    name RightLeg
    direction 0.00371093 -0.995096 -0.0988418
    length 16.5821
    axis 3.68512 0.0193738 -0.131023 xyz
    dof rx ry rz
  end
  begin
    id 4
    name RightFoot
    direction 0.000791514 -0.46099 0.887405
    length 3.77069
    axis 4.84075e-005 -0.120479 -0.188788 xyz
    dof rx ry rz
  end
  begin
    id 5
    name RightToes
    direction 0.00124746 -0.014064 0.9999
    length 3.85082
    axis 0.00048216 0.542163 -0.142577 xyz
    dof rx ry rz
  end
  begin
    id 6
    name SpineDummy
    direction 8.36599e-015 1 5.97571e-016
    length 4.6813
    axis 0 0 0 xyz
  end
  begin
    id 7
    name Spine
    direction -4.63632e-008 0.999988 0.00495137
    length 10.1015
    axis -0.00138897 0.000121419 3.25764e-006 xyz
    dof rx ry rz
  end
  begin
    id 8
    name Spine1
    direction 0 0 0
    length 0
    axis -0.00138896 0.000121452 2.39764e-006 xyz
    dof rx ry rz
  end
  begin
    id 9
    name HEadDummy
    direction -3.91456e-008 0.999999 0.00127422
    length 3.43865
    axis -0.00138896 0.000121452 2.39764e-006 xyz
  end
  begin
    id 10
    name HEad
    direction -0.0222688 0.980941 0.193023
    length 5.12695
    axis -0.00138895 0.000121452 2.39764e-006 xyz
    dof rx ry rz
  end
  begin
    id 11
    name LeftShoulder1Dummy
    direction 0.998891 -0.0402508 -0.0244456
    length 3.5433
    axis -0.00138896 0.000121452 2.39764e-006 xyz
  end
  begin
    id 12
    name LeftShoulder1
    direction 0.99951 -0.000327743 0.0313091
    length 4.05031
    axis -0.00138896 0.000121452 2.39764e-006 xyz
    dof rx ry rz
  end
  begin
    id 13
    name LeftArm
    direction 0.998561 -0.00100054 -0.0536182
    length 10.3537
    axis -23.1894 0.134784 0.96751 xyz
    dof rx ry rz
  end
  begin
    id 14
    name LeftForeArm
    direction 0.998903 0.00866434 0.046012
    length 8.70632
    axis -9.91835 -0.06569 -0.177792 xyz
    dof rx ry rz
  end
  begin
    id 15
    name LeftHand
    direction 0.992938 -0.0411636 0.11126
    length 5.32135
    axis -0.00960227 -0.00340091 0.185174 xyz
    dof rx ry rz
  end
  begin
    id 16
    name RightShoulderDummy
    direction -0.998891 -0.0402509 -0.0244414
    length 3.5433
    axis -0.00138896 0.000121452 2.39764e-006 xyz
  end
  begin
    id 17
    name RightShoulder
    direction -0.99951 -0.000327827 0.0313133
    length 4.05031
    axis 0.215806 0.000203644 -0.00680151 xyz
    dof rx ry rz
  end
  begin
    id 18
    name RightArm
    direction -0.998573 -0.000999583 -0.053403
    length 10.3947
    axis -23.2009 -0.134239 -0.9641 xyz
    dof rx ry rz
  end
  begin
    id 19
    name RightForeArm
    direction -0.998898 0.00868026 0.0461306
    length 8.68355
    axis -9.92322 0.0658061 0.178869 xyz
    dof rx ry rz
  end
  begin
    id 20
    name RightHand
    direction -0.992843 -0.0414603 0.112003
    length 5.28593
    axis -0.00960634 0.00330671 -0.185226 xyz
    dof rx ry rz
  end
  begin
    id 21
    name LeftUpLegDummy
    direction 0.718183 -0.695806 0.00816078
    length 4.904
    axis 0 0 0 xyz
  end
  begin
    id 22
    name LeftUpLeg
    direction -6.8115e-006 -0.995793 0.0916336
    length 17.4976
    axis -3.48766 0.00143441 -0.000523914 xyz
    dof rx ry rz
  end
  begin
    id 23
    name LeftLeg
    direction -0.00601357 -0.995091 -0.0987824
    length 16.5821
    axis 3.68177 -0.00654038 -0.00028478 xyz
    dof rx ry rz
  end
  begin
    id 24
    name LeftFoot
    direction -0.00417578 -0.460984 0.887399
    length 3.77069
    axis 1.87232e-006 4.66002e-005 -8.1837e-006 xyz
    dof rx ry rz
  end
  begin
    id 25
    name LeftToes
    direction 0.00818058 -0.00485161 0.999955
    length 3.85048
    axis 1.06246e-005 4.65855e-005 -8.18502e-006 xyz
    dof rx ry rz
  end
:hierarchy
  begin
    root RightUpLegDummy SpineDummy LeftUpLegDummy
    RightUpLegDummy RightUpLeg
    RightUpLeg RightLeg
    RightLeg RightFoot
    RightFoot RightToes
    SpineDummy Spine
    Spine Spine1
    Spine1 HEadDummy LeftShoulder1Dummy RightShoulderDummy
    HEadDummy HEad
    LeftShoulder1Dummy LeftShoulder1
    LeftShoulder1 LeftArm
    LeftArm LeftForeArm
    LeftForeArm LeftHand
    RightShoulderDummy RightShoulder
    RightShoulder RightArm
    RightArm RightForeArm
    RightForeArm RightHand
    LeftUpLegDummy LeftUpLeg
    LeftUpLeg LeftLeg
    LeftLeg LeftFoot
    LeftFoot LeftToes
  end

:SAMPLES-PER-SECOND 24
:FULLY-SPECIFIED
:DEGREES
19
root  -3.13753 36.6766 27.4172 178.067 27.458 178.112
RightUpLeg  26.1409 -14.8074 -22.5995
RightLeg  16.8541 7.56527 2.48969
RightFoot  -17.0337 1.0734 23.6224
RightToes  -1.46203e-006 3.27826e-006 1.63871e-007
Spine  -2.4862 7.63487 10.7667
Spine1  19.5858 9.81942 -6.46616
HEad  14.6959 5.44334 -2.59211
LeftShoulder1  2.36221 -4.02342 -25.2159
LeftArm  1.64594 16.7564 -33.721
LeftForeArm  65.0054 -78.5945 -59.2726
LeftHand  -0.431144 2.89767 19.8517
RightShoulder  2.5622 4.93958 24.2359
RightArm  0.426482 51.9379 65.6714
RightForeArm  134.169 75.7171 135.367
RightHand  -0.618428 -3.21607 -32.4074
LeftUpLeg  -30.9553 21.8285 1.44441
LeftLeg  13.8958 12.9296 0.072332
LeftFoot  10.9195 -0.594142 2.67973
LeftToes  1.24767e-006 1.47042e-008 1.32732e-009
20
root  -3.36041 36.6457 25.1321 175.084 20.2861 176.731
RightUpLeg  24.9009 -14.1465 -25.694
RightLeg  31.0422 2.41765 1.21483
RightFoot  -2.4073 -1.82021 24.0056
RightToes  -1.46203e-006 3.27826e-006 1.63871e-007
Spine  -1.81143 10.2374 12.3485
Spine1  18.8183 12.8935 -8.13133
HEad  17.3677 -7.08013 -0.0743097
LeftShoulder1  2.40401 -4.00894 -25.8587
LeftArm  -0.428556 19.8402 -27.3925
LeftForeArm  69.2607 -78.7915 -58.758
LeftHand  -0.301432 3.76731 21.1636
RightShoulder  2.69528 5.07416 25.3677
RightArm  -8.4149 50.701 53.364
RightForeArm  151.929 73.6495 144.376
RightHand  -1.81461 1.47863 -30.1184
LeftUpLeg  -30.8737 23.9955 -6.22117
LeftLeg  19.8763 2.35126 1.59754
LeftFoot  11.6209 -0.976503 4.46445
LeftToes  1.24767e-006 1.47042e-008 1.32732e-009
21
root  -3.6566 36.394 23.3455 171.912 11.1925 176.268
RightUpLeg  17.485 -11.9903 -24.7314
RightLeg  53.5962 2.12184 3.20732
RightFoot  18.8961 -4.88649 18.4568
RightToes  -1.46203e-006 3.27826e-006 1.63871e-007
Spine  -1.0339 11.8061 11.7026
Spine1  18.7669 13.6614 -7.62049
HEad  21.2756 -18.299 0.792045
LeftShoulder1  2.19883 -3.58996 -24.8008
LeftArm  -4.36386 17.901 -22.8662
LeftForeArm  72.8861 -79.1906 -62.8041
LeftHand  -0.214475 4.21529 20.5665
RightShoulder  2.98378 5.42988 27.4173
RightArm  -22.5086 40.0055 33.9993
RightForeArm  156.408 75.1127 142.336
RightHand  -2.92561 5.28019 -31.3295
LeftUpLeg  -27.4717 15.3786 -7.55108
LeftLeg  25.5517 3.48473 2.18821
LeftFoot  9.78978 -1.3397 6.86691
LeftToes  1.24767e-006 1.47042e-008 1.32732e-009
22
root  -3.72343 35.943 22.144 168.095 1.80113 176.439
RightUpLeg  7.29666 -11.8345 -24.4023
RightLeg  79.1033 2.1969 13.1238
RightFoot  33.7018 -7.87749 19.3648
RightToes  -1.46203e-006 3.27826e-006 1.63871e-007
Spine  -0.385781 12.9369 7.30893
Spine1  21.035 11.8961 -2.92766
HEad  24.4193 -27.7456 0.563431
LeftShoulder1  1.97443 -3.11767 -23.5672
LeftArm  -7.51508 8.81986 -20.9663
LeftForeArm  79.9481 -79.6824 -66.1229
LeftHand  -0.239796 3.90472 18.183
RightShoulder  3.52291 5.96296 31.3127
RightArm  -32.5039 20.5965 16.7482
RightForeArm  100.55 80.5461 91.3144
RightHand  -3.30558 6.04854 -32.9481
LeftUpLeg  -24.545 9.65141 -9.16502
LeftLeg  32.2327 1.40655 1.32387
LeftFoot  6.48973 -1.23515 7.59326
LeftToes  1.24767e-006 1.47042e-008 1.32732e-009
23
root  -3.63428 36.0553 20.779 162.854 -10.2328 -179.875
RightUpLeg  -1.23063 -14.8148 -25.1991
RightLeg  98.4543 -3.22669 18.5407
RightFoot  39.4792 -9.41804 20.2895
RightToes  -1.46203e-006 3.27826e-006 1.63871e-007
Spine  -2.14801 11.0802 2.06322
Spine1  24.0396 5.88582 5.46621
HEad  26.3893 -34.2423 -0.50903
LeftShoulder1  1.94506 -3.19068 -22.7644
LeftArm  -8.36786 -7.79269 -23.2675
LeftForeArm  70.9349 -78.541 -54.1083
LeftHand  -0.228466 3.82532 16.3451
RightShoulder  3.89635 6.22085 34.1808
RightArm  -32.4668 2.44907 7.8233
RightForeArm  18.7603 63.685 21.5837
RightHand  -3.73843 7.16839 -33.8783
LeftUpLeg  -18.073 4.68342 -8.25833
LeftLeg  35.8773 -3.09049 -1.99597
LeftFoot  3.48994 -1.15127 8.66432
LeftToes  1.24767e-006 1.47042e-008 1.32732e-009
